<svg id="圖層_1" data-name="圖層 1" xmlns="http://www.w3.org/2000/svg" viewBox="0 0 120 30.64"><defs><style>.cls-1{fill:#00b900;}.cls-2,.cls-3{fill:#fff;}.cls-3{font-size:12px;font-family:NotoSansCJKtc-Regular-B5pc-H, Noto Sans CJK TC;}</style></defs><rect class="cls-1" width="120" height="27" rx="6"/><path class="cls-2" d="M19.35,11.41V14.1a.12.12,0,0,1-.12.12H18.8a.12.12,0,0,1-.1-.05l-1.23-1.66V14.1a.13.13,0,0,1-.12.13h-.43a.13.13,0,0,1-.13-.13V11.42a.12.12,0,0,1,.13-.12h.42a.1.1,0,0,1,.1,0L18.67,13V11.42a.12.12,0,0,1,.12-.12h.44a.11.11,0,0,1,.12.11Zm-3.1-.12h-.43a.12.12,0,0,0-.12.12V14.1a.12.12,0,0,0,.12.12h.43a.12.12,0,0,0,.12-.12V11.41a.12.12,0,0,0-.12-.12Zm-1,2.25H14V11.41a.12.12,0,0,0-.13-.12h-.43a.12.12,0,0,0-.12.12V14.1a.09.09,0,0,0,0,.08.12.12,0,0,0,.08,0h1.73a.12.12,0,0,0,.12-.12v-.43a.12.12,0,0,0-.12-.13Zm6.41-2.25H19.89a.12.12,0,0,0-.12.12V14.1a.12.12,0,0,0,.12.12h1.73a.12.12,0,0,0,.12-.12v-.43a.12.12,0,0,0-.12-.12H20.44V13.1h1.18a.12.12,0,0,0,.12-.13v-.43a.12.12,0,0,0-.12-.12H20.44V12h1.18a.12.12,0,0,0,.12-.12v-.43a.13.13,0,0,0-.12-.12ZM26,8V18.78a3.08,3.08,0,0,1-3.09,3.06H12.13a3.09,3.09,0,0,1-3.07-3.09V8A3.09,3.09,0,0,1,12.15,4.9H22.94A3.09,3.09,0,0,1,26,8Zm-2.33,4.64c0-2.76-2.77-5-6.16-5s-6.17,2.25-6.17,5c0,2.47,2.19,4.54,5.16,4.93.72.16.64.42.47,1.39,0,.16-.12.61.54.34a20,20,0,0,0,4.84-3.58A4.49,4.49,0,0,0,23.67,12.63Z"/><text class="cls-3" transform="translate(34.29 18.06)">立即加入好友</text></svg>